# xmcd
#
# Track frame offsets:
#	150
#	20962
#	41695
#	57207
#	76052
#	86932
#	101447
#	116042
#	132002
#	143972
#	160332
#	177035
#	203365
#	219310
#
# Disc length: 3088 seconds
#
# Revision: 0
# Processed by: cddbd v1.4b42PL1 Copyright (c) Steve Scherf et al.
# Submitted via: audiograbber 1.80
#
DISCID=ba0c0e0e
DTITLE=Various Artist - Truck Hits Vol.3
DYEAR=1900
DGENRE=
TTITLE0=Gunter Gabriel - Er ist ein Kerl
TTITLE1=Jonny Hill - Bobby
TTITLE2=Truck Stop - Alles Bingo
TTITLE3=Larry Schuba and Western Union - Unter allen Männern bin ich der Lkw
TTITLE4=Tom Astor and Larry Schuba - Zwei Trucker wie wir
TTITLE5=Gunter Gabriel and Manfred Krug - Hallo Dortmund
TTITLE6=Truck Stop - Lousiana Ladies
TTITLE7=Tennessee - Nashville Tennessee
TTITLE8=Tom Astor - Guten Morgen, Deutschland
TTITLE9=Jonny Hill - Sie ist nicht so wie die
TTITLE10=Volker Lechtenbrink - Der Spieler
TTITLE11=Larry Schuba and Western Union - Transit Cowboy
TTITLE12=Truck Stop - Ich möcht´ so gern Dave Dudley hör´n
TTITLE13=Tom Astor - Hier riecht´s nach Freiheit
EXTD=
EXTT0=
EXTT1=
EXTT2=
EXTT3=
EXTT4=
EXTT5=
EXTT6=
EXTT7=
EXTT8=
EXTT9=
EXTT10=
EXTT11=
EXTT12=
EXTT13=
PLAYORDER=
